# xmcd
#
# Track frame offsets:
#	150
#	21357
#	40470
#	63687
#	82435
#	101500
#	122555
#	141057
#	155542
#	172750
#	192115
#	220255
#	235015
#	253995
#
# Disc length: 3584 seconds
#
# Revision: 4
# Processed by: cddbd v1.4PL0 Copyright (c) Steve Scherf et al.
# Submitted via: CDmax 2.0
#
DISCID=c80dfe0e
DTITLE=John Mayall and the Bluesbreakers - Silver Tones - The Best of John Maya
DTITLE=ll and the Bluesbreakers
DYEAR=1998
DGENRE=Blues
TTITLE0=Mail Order Mystics
TTITLE1=Wake Up Call
TTITLE2=I Could Cry
TTITLE3=Not At Home
TTITLE4=When the Devil Starts Crying
TTITLE5=Spinning Coin
TTITLE6=Ain't No Brakeman
TTITLE7=No Big Hurry
TTITLE8=Dead City
TTITLE9=Stone Cold Deal
TTITLE10=Blues For the Lost Days
TTITLE11=I Don't Mind
TTITLE12=Movin' Groovin' Blues
TTITLE13=Fan the Flames (Alternate Take)
EXTD=LABEL =Silvertone Records Ltd.\nID =01241-41658-2\nUPC =01241-41658-2
EXTD=4\nCOPYRIGHT =1998
EXTT0=
EXTT1=(Featuring Mavis Staples and Mick Taylor)
EXTT2=(Featuring Buddy Guy)
EXTT3=(Featuring Mick Taylor)
EXTT4=
EXTT5=
EXTT6=
EXTT7=
EXTT8=
EXTT9=
EXTT10=
EXTT11=
EXTT12=
EXTT13=
PLAYORDER=
